<mxfile host="app.diagrams.net" modified="2023-02-01T02:25:58.515Z" agent="5.0 (Windows NT 10.0; Win64; x64) AppleWebKit/537.36 (KHTML, like Gecko) Chrome/109.0.0.0 Safari/537.36" version="20.7.4" etag="NR03-3gC4WlI3XeM6TKi" type="github">
  <diagram id="g_xVIzoS0gE0EUZtDxA0" name="第 1 页">
    <mxGraphModel dx="1481" dy="799" grid="1" gridSize="10" guides="1" tooltips="1" connect="1" arrows="1" fold="1" page="1" pageScale="1" pageWidth="827" pageHeight="1169" math="0" shadow="0">
      <root>
        <mxCell id="0" />
        <mxCell id="1" parent="0" />
        <mxCell id="0qa4abMcRrUXD9rhgHAS-6" style="edgeStyle=orthogonalEdgeStyle;rounded=0;orthogonalLoop=1;jettySize=auto;html=1;exitX=1;exitY=0.5;exitDx=0;exitDy=0;" edge="1" parent="1" source="0qa4abMcRrUXD9rhgHAS-1" target="0qa4abMcRrUXD9rhgHAS-5">
          <mxGeometry relative="1" as="geometry" />
        </mxCell>
        <mxCell id="0qa4abMcRrUXD9rhgHAS-1" value="自定义Loop" style="rounded=0;whiteSpace=wrap;html=1;" vertex="1" parent="1">
          <mxGeometry x="50" y="100" width="120" height="60" as="geometry" />
        </mxCell>
        <mxCell id="0qa4abMcRrUXD9rhgHAS-7" style="edgeStyle=orthogonalEdgeStyle;rounded=0;orthogonalLoop=1;jettySize=auto;html=1;exitX=1;exitY=0.5;exitDx=0;exitDy=0;" edge="1" parent="1" source="0qa4abMcRrUXD9rhgHAS-2" target="0qa4abMcRrUXD9rhgHAS-4">
          <mxGeometry relative="1" as="geometry" />
        </mxCell>
        <mxCell id="0qa4abMcRrUXD9rhgHAS-2" value="自定义Hook" style="rounded=0;whiteSpace=wrap;html=1;" vertex="1" parent="1">
          <mxGeometry x="50" y="200" width="120" height="60" as="geometry" />
        </mxCell>
        <mxCell id="0qa4abMcRrUXD9rhgHAS-3" value="自定义Runner" style="rounded=0;whiteSpace=wrap;html=1;" vertex="1" parent="1">
          <mxGeometry x="50" y="300" width="120" height="60" as="geometry" />
        </mxCell>
        <mxCell id="0qa4abMcRrUXD9rhgHAS-17" style="edgeStyle=orthogonalEdgeStyle;rounded=0;orthogonalLoop=1;jettySize=auto;html=1;exitX=1;exitY=0.5;exitDx=0;exitDy=0;entryX=0.018;entryY=0.618;entryDx=0;entryDy=0;entryPerimeter=0;" edge="1" parent="1" target="0qa4abMcRrUXD9rhgHAS-11">
          <mxGeometry relative="1" as="geometry">
            <mxPoint x="451" y="230" as="sourcePoint" />
            <Array as="points">
              <mxPoint x="461" y="230" />
              <mxPoint x="461" y="195" />
            </Array>
          </mxGeometry>
        </mxCell>
        <mxCell id="0qa4abMcRrUXD9rhgHAS-18" style="edgeStyle=orthogonalEdgeStyle;rounded=0;orthogonalLoop=1;jettySize=auto;html=1;" edge="1" parent="1" source="0qa4abMcRrUXD9rhgHAS-4" target="0qa4abMcRrUXD9rhgHAS-12">
          <mxGeometry relative="1" as="geometry">
            <mxPoint x="451" y="230" as="sourcePoint" />
            <Array as="points">
              <mxPoint x="461" y="230" />
              <mxPoint x="461" y="250" />
            </Array>
          </mxGeometry>
        </mxCell>
        <mxCell id="0qa4abMcRrUXD9rhgHAS-4" value="&lt;b&gt;@HOOK.register_module()&lt;br&gt;&lt;/b&gt;" style="rounded=0;whiteSpace=wrap;html=1;" vertex="1" parent="1">
          <mxGeometry x="240" y="200" width="180" height="60" as="geometry" />
        </mxCell>
        <mxCell id="0qa4abMcRrUXD9rhgHAS-15" style="edgeStyle=orthogonalEdgeStyle;rounded=0;orthogonalLoop=1;jettySize=auto;html=1;exitX=1;exitY=0.5;exitDx=0;exitDy=0;entryX=0;entryY=0.5;entryDx=0;entryDy=0;" edge="1" parent="1" target="0qa4abMcRrUXD9rhgHAS-14">
          <mxGeometry relative="1" as="geometry">
            <mxPoint x="451" y="130" as="sourcePoint" />
          </mxGeometry>
        </mxCell>
        <mxCell id="0qa4abMcRrUXD9rhgHAS-16" style="edgeStyle=orthogonalEdgeStyle;rounded=0;orthogonalLoop=1;jettySize=auto;html=1;exitX=1;exitY=0.5;exitDx=0;exitDy=0;entryX=0;entryY=0.5;entryDx=0;entryDy=0;" edge="1" parent="1" source="0qa4abMcRrUXD9rhgHAS-5" target="0qa4abMcRrUXD9rhgHAS-13">
          <mxGeometry relative="1" as="geometry">
            <mxPoint x="451" y="130" as="sourcePoint" />
            <Array as="points">
              <mxPoint x="461" y="130" />
              <mxPoint x="461" y="70" />
            </Array>
          </mxGeometry>
        </mxCell>
        <mxCell id="0qa4abMcRrUXD9rhgHAS-5" value="&lt;b&gt;@LOOPS.register_module()&lt;br&gt;&lt;/b&gt;" style="rounded=0;whiteSpace=wrap;html=1;" vertex="1" parent="1">
          <mxGeometry x="240" y="100" width="180" height="60" as="geometry" />
        </mxCell>
        <mxCell id="0qa4abMcRrUXD9rhgHAS-34" style="edgeStyle=orthogonalEdgeStyle;rounded=0;orthogonalLoop=1;jettySize=auto;html=1;exitX=0;exitY=0.5;exitDx=0;exitDy=0;entryX=1;entryY=0.5;entryDx=0;entryDy=0;" edge="1" parent="1" source="0qa4abMcRrUXD9rhgHAS-8" target="0qa4abMcRrUXD9rhgHAS-29">
          <mxGeometry relative="1" as="geometry" />
        </mxCell>
        <mxCell id="0qa4abMcRrUXD9rhgHAS-8" value="xxx_cfg" style="rounded=0;whiteSpace=wrap;html=1;" vertex="1" parent="1">
          <mxGeometry x="560" y="430" width="120" height="60" as="geometry" />
        </mxCell>
        <mxCell id="0qa4abMcRrUXD9rhgHAS-28" style="edgeStyle=orthogonalEdgeStyle;rounded=0;orthogonalLoop=1;jettySize=auto;html=1;exitX=0.5;exitY=0;exitDx=0;exitDy=0;" edge="1" parent="1" source="0qa4abMcRrUXD9rhgHAS-9" target="0qa4abMcRrUXD9rhgHAS-19">
          <mxGeometry relative="1" as="geometry">
            <Array as="points">
              <mxPoint x="330" y="280" />
              <mxPoint x="700" y="280" />
            </Array>
          </mxGeometry>
        </mxCell>
        <mxCell id="0qa4abMcRrUXD9rhgHAS-9" value="&lt;b&gt;@RUNNERS.register_module()&lt;br&gt;&lt;/b&gt;" style="rounded=0;whiteSpace=wrap;html=1;" vertex="1" parent="1">
          <mxGeometry x="240" y="300" width="180" height="60" as="geometry" />
        </mxCell>
        <mxCell id="0qa4abMcRrUXD9rhgHAS-10" style="edgeStyle=orthogonalEdgeStyle;rounded=0;orthogonalLoop=1;jettySize=auto;html=1;exitX=1;exitY=0.5;exitDx=0;exitDy=0;" edge="1" parent="1">
          <mxGeometry relative="1" as="geometry">
            <mxPoint x="170" y="329.52" as="sourcePoint" />
            <mxPoint x="240" y="329.52" as="targetPoint" />
          </mxGeometry>
        </mxCell>
        <mxCell id="0qa4abMcRrUXD9rhgHAS-22" style="edgeStyle=orthogonalEdgeStyle;rounded=0;orthogonalLoop=1;jettySize=auto;html=1;exitX=1;exitY=0.5;exitDx=0;exitDy=0;" edge="1" parent="1" source="0qa4abMcRrUXD9rhgHAS-11">
          <mxGeometry relative="1" as="geometry">
            <mxPoint x="640" y="130" as="targetPoint" />
            <Array as="points">
              <mxPoint x="600" y="190" />
              <mxPoint x="600" y="130" />
            </Array>
          </mxGeometry>
        </mxCell>
        <mxCell id="0qa4abMcRrUXD9rhgHAS-11" value="default_hooks" style="rounded=0;whiteSpace=wrap;html=1;" vertex="1" parent="1">
          <mxGeometry x="471" y="170" width="80" height="40" as="geometry" />
        </mxCell>
        <mxCell id="0qa4abMcRrUXD9rhgHAS-23" style="edgeStyle=orthogonalEdgeStyle;rounded=0;orthogonalLoop=1;jettySize=auto;html=1;exitX=1;exitY=0.5;exitDx=0;exitDy=0;" edge="1" parent="1" source="0qa4abMcRrUXD9rhgHAS-12">
          <mxGeometry x="0.0431" y="-20" relative="1" as="geometry">
            <mxPoint x="640" y="130" as="targetPoint" />
            <Array as="points">
              <mxPoint x="600" y="250" />
              <mxPoint x="600" y="130" />
            </Array>
            <mxPoint as="offset" />
          </mxGeometry>
        </mxCell>
        <mxCell id="0qa4abMcRrUXD9rhgHAS-12" value="custom_hooks" style="rounded=0;whiteSpace=wrap;html=1;" vertex="1" parent="1">
          <mxGeometry x="471" y="230" width="80" height="40" as="geometry" />
        </mxCell>
        <mxCell id="0qa4abMcRrUXD9rhgHAS-20" style="edgeStyle=orthogonalEdgeStyle;rounded=0;orthogonalLoop=1;jettySize=auto;html=1;exitX=1;exitY=0.5;exitDx=0;exitDy=0;entryX=0;entryY=0.5;entryDx=0;entryDy=0;" edge="1" parent="1" source="0qa4abMcRrUXD9rhgHAS-13" target="0qa4abMcRrUXD9rhgHAS-19">
          <mxGeometry relative="1" as="geometry">
            <Array as="points">
              <mxPoint x="600" y="70" />
              <mxPoint x="600" y="130" />
            </Array>
          </mxGeometry>
        </mxCell>
        <mxCell id="0qa4abMcRrUXD9rhgHAS-13" value="default" style="rounded=0;whiteSpace=wrap;html=1;" vertex="1" parent="1">
          <mxGeometry x="471" y="50" width="80" height="40" as="geometry" />
        </mxCell>
        <mxCell id="0qa4abMcRrUXD9rhgHAS-21" style="edgeStyle=orthogonalEdgeStyle;rounded=0;orthogonalLoop=1;jettySize=auto;html=1;exitX=1;exitY=0.5;exitDx=0;exitDy=0;entryX=0;entryY=0.5;entryDx=0;entryDy=0;" edge="1" parent="1" source="0qa4abMcRrUXD9rhgHAS-14" target="0qa4abMcRrUXD9rhgHAS-19">
          <mxGeometry relative="1" as="geometry" />
        </mxCell>
        <mxCell id="0qa4abMcRrUXD9rhgHAS-14" value="default" style="rounded=0;whiteSpace=wrap;html=1;" vertex="1" parent="1">
          <mxGeometry x="471" y="110" width="80" height="40" as="geometry" />
        </mxCell>
        <mxCell id="0qa4abMcRrUXD9rhgHAS-33" style="edgeStyle=orthogonalEdgeStyle;rounded=0;orthogonalLoop=1;jettySize=auto;html=1;exitX=1;exitY=0.5;exitDx=0;exitDy=0;entryX=0.5;entryY=0;entryDx=0;entryDy=0;" edge="1" parent="1" source="0qa4abMcRrUXD9rhgHAS-19" target="0qa4abMcRrUXD9rhgHAS-29">
          <mxGeometry relative="1" as="geometry">
            <Array as="points">
              <mxPoint x="780" y="130" />
              <mxPoint x="780" y="370" />
              <mxPoint x="435" y="370" />
            </Array>
          </mxGeometry>
        </mxCell>
        <mxCell id="0qa4abMcRrUXD9rhgHAS-19" value="Registry Manager" style="rounded=0;whiteSpace=wrap;html=1;" vertex="1" parent="1">
          <mxGeometry x="640" y="100" width="120" height="60" as="geometry" />
        </mxCell>
        <mxCell id="0qa4abMcRrUXD9rhgHAS-35" style="edgeStyle=orthogonalEdgeStyle;rounded=0;orthogonalLoop=1;jettySize=auto;html=1;exitX=0;exitY=0.5;exitDx=0;exitDy=0;" edge="1" parent="1" source="0qa4abMcRrUXD9rhgHAS-25">
          <mxGeometry relative="1" as="geometry">
            <mxPoint x="500" y="500" as="targetPoint" />
            <Array as="points">
              <mxPoint x="530" y="540" />
              <mxPoint x="530" y="500" />
            </Array>
          </mxGeometry>
        </mxCell>
        <mxCell id="0qa4abMcRrUXD9rhgHAS-25" value="hooks_parameters" style="rounded=0;whiteSpace=wrap;html=1;" vertex="1" parent="1">
          <mxGeometry x="560" y="510" width="120" height="60" as="geometry" />
        </mxCell>
        <mxCell id="0qa4abMcRrUXD9rhgHAS-29" value="Runner_instances" style="rounded=0;whiteSpace=wrap;html=1;" vertex="1" parent="1">
          <mxGeometry x="370" y="470" width="130" height="60" as="geometry" />
        </mxCell>
        <mxCell id="0qa4abMcRrUXD9rhgHAS-38" style="edgeStyle=orthogonalEdgeStyle;rounded=0;orthogonalLoop=1;jettySize=auto;html=1;exitX=1;exitY=0.5;exitDx=0;exitDy=0;" edge="1" parent="1" source="0qa4abMcRrUXD9rhgHAS-32" target="0qa4abMcRrUXD9rhgHAS-29">
          <mxGeometry relative="1" as="geometry" />
        </mxCell>
        <mxCell id="0qa4abMcRrUXD9rhgHAS-32" value="build_task" style="rounded=0;whiteSpace=wrap;html=1;" vertex="1" parent="1">
          <mxGeometry x="200" y="470" width="120" height="60" as="geometry" />
        </mxCell>
        <mxCell id="0qa4abMcRrUXD9rhgHAS-37" style="edgeStyle=orthogonalEdgeStyle;rounded=0;orthogonalLoop=1;jettySize=auto;html=1;exitX=0.5;exitY=0;exitDx=0;exitDy=0;entryX=0.5;entryY=1;entryDx=0;entryDy=0;" edge="1" parent="1" source="0qa4abMcRrUXD9rhgHAS-36" target="0qa4abMcRrUXD9rhgHAS-32">
          <mxGeometry relative="1" as="geometry" />
        </mxCell>
        <mxCell id="0qa4abMcRrUXD9rhgHAS-36" value="runner_cfg" style="rounded=0;whiteSpace=wrap;html=1;" vertex="1" parent="1">
          <mxGeometry x="200" y="555" width="120" height="60" as="geometry" />
        </mxCell>
      </root>
    </mxGraphModel>
  </diagram>
</mxfile>
